# xmcd CD database file
#
# Track frame offsets:
#	150
#	11391
#	101771
#
# Disc length: 1893 seconds
#
# Revision: 0
# Processed by: cddbd v1.5.1PL0 Copyright (c) Steve Scherf et al.
# Submitted via: CDex 1.60beta1
#
DISCID=18076303
DTITLE=Suzannah Galland - Quest For An Angel: Meditation Series
DYEAR=2000
DGENRE=New Age
TTITLE0=Introduction
TTITLE1=Angel Visualization
TTITLE2=Angelic Music
EXTD=YEAR: 2000
EXTT0=
EXTT1=
EXTT2=
PLAYORDER=
